<?xml version="1.0" standalone="no"?>
<!DOCTYPE svg PUBLIC "-//W3C//DTD SVG 20010904//EN"
 "http://www.w3.org/TR/2001/REC-SVG-20010904/DTD/svg10.dtd">
<svg version="1.0" xmlns="http://www.w3.org/2000/svg"
 width="1024.000000pt" height="1024.000000pt" viewBox="0 0 1024.000000 1024.000000"
 preserveAspectRatio="xMidYMid meet">
<metadata>
Created by potrace 1.11, written by Peter Selinger 2001-2013
</metadata>
<g transform="translate(0.000000,1024.000000) scale(0.100000,-0.100000)"
fill="#000000" stroke="none">
<path d="M4613 10106 c-58 -19 -109 -52 -134 -87 -31 -44 -22 -97 28 -155 95
-111 113 -138 125 -177 16 -57 14 -219 -5 -292 -9 -33 -18 -73 -21 -89 -4 -25
-38 -136 -53 -176 -3 -8 -7 -19 -8 -25 -6 -22 -130 -324 -170 -411 -8 -16 -29
-66 -48 -110 -19 -43 -46 -104 -60 -134 -14 -30 -58 -127 -97 -215 -40 -88
-91 -200 -115 -250 -23 -49 -52 -112 -64 -138 -12 -27 -61 -128 -108 -225
-143 -296 -226 -524 -352 -962 -27 -93 -104 -392 -116 -445 -62 -290 -62 -291
-70 -610 -5 -224 -8 -243 -41 -370 -20 -78 -23 -108 -20 -225 2 -74 6 -148 10
-165 3 -16 9 -43 13 -60 4 -16 8 -34 9 -40 1 -5 12 -46 24 -89 38 -138 60
-167 128 -172 19 -1 38 -6 42 -10 6 -7 197 -656 215 -734 2 -8 83 -292 180
-630 97 -338 185 -644 195 -680 9 -36 63 -225 119 -420 252 -877 345 -1200
362 -1260 65 -238 113 -390 136 -432 37 -67 97 -124 172 -161 56 -27 77 -32
161 -35 85 -4 104 -1 158 21 126 50 200 133 245 272 42 128 272 877 354 1150
41 138 83 279 94 315 42 141 143 491 170 593 37 137 86 317 105 387 9 30 21
78 29 105 7 28 48 176 90 330 42 154 78 287 80 295 2 8 27 98 55 200 28 102
53 194 56 205 2 11 13 52 24 90 12 39 23 77 25 85 1 8 13 51 25 95 12 44 31
117 43 163 21 79 24 84 67 109 136 80 233 222 274 400 18 82 21 259 6 368 -13
90 -55 262 -81 332 -18 48 -21 81 -24 291 -4 408 -41 573 -210 947 -69 151
-153 325 -513 1055 -304 618 -334 689 -453 1065 -103 329 -247 629 -387 808
-98 124 -249 245 -359 287 -73 29 -245 37 -310 16z m277 -238 c83 -40 205
-160 282 -278 109 -166 217 -408 298 -670 116 -376 152 -460 528 -1220 503
-1019 547 -1121 598 -1349 33 -155 47 -378 34 -543 -6 -70 -10 -81 -45 -123
-111 -136 -234 -225 -373 -269 -37 -12 -76 -28 -88 -36 -82 -59 -40 -190 62
-190 39 0 171 47 243 86 70 39 150 98 221 164 l45 42 13 -54 c40 -170 52 -325
32 -428 -23 -120 -99 -238 -181 -281 -35 -18 -77 -18 -985 -19 -522 -1 -1187
-2 -1478 -3 -340 -1 -534 2 -543 8 -18 14 -63 242 -63 323 0 37 11 111 25 165
36 147 43 214 45 477 1 118 8 212 21 289 17 101 113 506 139 586 6 16 35 113
65 215 59 199 83 274 147 445 39 105 67 167 227 498 39 81 71 149 71 151 0 2
24 55 54 117 29 63 62 134 74 159 45 101 155 347 169 380 9 19 24 53 34 75 83
187 182 436 212 535 66 218 82 306 82 460 0 128 -21 205 -77 289 l-29 43 38
-6 c21 -4 67 -21 103 -38z m-440 -5390 c0 -6 -76 -107 -89 -118 -4 -3 -29 -33
-56 -67 -28 -35 -53 -63 -56 -63 -12 0 -209 248 -199 252 19 6 400 3 400 -4z
m800 0 c0 -12 -190 -248 -200 -248 -9 0 -210 247 -204 252 8 8 404 4 404 -4z
m803 -2 c-16 -26 -196 -246 -202 -246 -4 0 -13 8 -21 18 -36 41 -177 218 -183
228 -5 8 52 11 203 12 155 0 208 -3 203 -12z m253 -71 l41 -50 -59 -210 c-32
-115 -66 -238 -75 -272 -10 -35 -20 -63 -23 -63 -4 1 -66 77 -199 247 l-34 43
119 146 c66 80 132 163 148 185 17 22 33 36 36 32 3 -5 24 -30 46 -58z m-2329
-103 c65 -81 128 -158 141 -172 12 -14 22 -27 22 -30 0 -4 -188 -241 -204
-258 -3 -2 -81 262 -91 308 -2 8 -18 63 -35 123 -29 99 -30 108 -15 123 9 9
23 27 32 40 8 13 19 22 23 19 5 -3 62 -71 127 -153z m843 -50 c63 -79 116
-146 117 -150 3 -7 -274 -355 -286 -360 -4 -1 -58 62 -121 140 -63 79 -121
149 -128 157 -36 37 -44 60 -30 79 26 36 213 267 240 297 16 17 28 35 28 40 1
14 46 -37 180 -203z m702 120 c34 -42 67 -83 73 -90 5 -7 15 -18 20 -25 6 -7
37 -44 69 -84 57 -72 59 -77 30 -113 -7 -8 -59 -71 -115 -140 -55 -69 -112
-138 -125 -155 -21 -25 -26 -27 -38 -15 -20 22 -261 323 -270 338 -6 11 114
175 197 267 47 52 77 91 77 98 0 15 19 -4 82 -81z m-1127 -577 c77 -96 141
-179 143 -184 2 -6 -62 -91 -143 -191 l-146 -180 -27 32 c-15 18 -29 35 -32
38 -3 3 -40 49 -83 103 -63 79 -82 111 -99 166 -18 60 -19 72 -7 88 36 50 244
303 249 303 3 -1 68 -79 145 -175z m735 80 c39 -49 79 -99 88 -110 9 -11 35
-43 57 -70 22 -28 45 -56 52 -63 7 -7 13 -18 13 -24 0 -8 -49 -75 -85 -114 -5
-6 -54 -66 -108 -133 l-98 -121 -47 58 c-186 229 -242 301 -242 310 0 8 67 96
105 138 6 6 48 59 95 117 47 59 88 106 92 104 3 -1 38 -42 78 -92z m859 -73
c72 -89 136 -171 143 -181 10 -17 -3 -37 -108 -168 -65 -81 -132 -163 -148
-180 l-29 -33 -15 23 c-9 12 -18 24 -21 27 -5 4 -55 66 -101 124 -8 11 -29 35
-45 55 -115 135 -116 137 -97 157 9 10 33 39 52 64 19 25 43 54 52 64 10 11
52 63 95 118 43 54 81 97 84 95 4 -1 66 -75 138 -165z m-385 -513 c136 -168
153 -193 141 -207 -8 -10 -30 -37 -50 -62 -20 -25 -44 -54 -53 -65 -10 -11
-44 -54 -77 -95 -32 -41 -65 -81 -72 -88 -7 -7 -19 -23 -28 -35 -13 -19 -16
-20 -27 -5 -7 9 -75 93 -150 186 -76 93 -138 176 -138 183 0 8 10 25 23 39 12
14 42 50 67 80 25 30 49 60 55 66 5 7 42 52 80 102 39 50 71 91 72 91 1 1 72
-85 157 -190z m-805 6 c78 -97 144 -182 147 -190 4 -8 -54 -89 -143 -199 -81
-102 -150 -185 -153 -185 -3 -1 -32 33 -65 76 -33 42 -65 81 -70 87 -6 6 -48
57 -93 113 l-82 101 151 186 c82 102 153 186 158 186 4 0 71 -79 150 -175z
m1220 -122 c-5 -16 -15 -50 -21 -76 l-13 -49 -21 25 -21 24 40 52 c22 28 41
51 42 51 2 0 -1 -12 -6 -27z m-1687 -319 c40 -50 103 -128 141 -173 37 -46 67
-87 67 -93 0 -5 -6 -15 -12 -22 -7 -7 -49 -57 -92 -111 l-80 -98 -68 239 c-37
131 -72 254 -77 271 -8 27 -6 37 11 58 11 14 24 25 29 23 4 -2 41 -44 81 -94z
m812 -14 c49 -61 93 -116 100 -123 6 -7 29 -35 51 -62 21 -28 43 -52 47 -56 4
-3 -45 -70 -110 -150 -64 -80 -130 -162 -146 -182 -16 -20 -33 -37 -37 -37 -5
0 -239 286 -290 355 -4 6 6 26 24 45 18 19 83 99 146 178 62 78 116 142 120
142 4 0 47 -50 95 -110z m742 74 c16 -20 32 -43 37 -50 5 -9 -83 -353 -139
-537 -5 -15 -8 -14 -27 10 -12 15 -29 37 -39 48 -170 206 -170 206 -126 255
13 14 74 89 137 168 63 78 118 142 121 142 4 0 20 -16 36 -36z m-1211 -483
c11 -15 37 -48 57 -72 20 -24 81 -100 136 -168 l100 -124 -82 -101 c-46 -56
-115 -141 -156 -191 -40 -49 -76 -91 -79 -93 -4 -1 -40 38 -79 86 -72 89 -72
89 -116 243 -35 121 -42 157 -33 170 29 40 223 279 227 279 3 0 14 -13 25 -29z
m827 -35 c29 -35 64 -78 78 -96 14 -18 30 -37 35 -44 35 -40 93 -114 102 -130
16 -29 -23 -141 -70 -206 -67 -90 -189 -235 -198 -235 -5 0 -36 34 -69 75 -34
41 -66 82 -73 90 -7 8 -49 61 -94 116 l-82 101 23 29 c43 52 200 248 246 306
25 31 46 57 47 57 1 1 26 -28 55 -63z m-422 -520 c14 -18 41 -53 62 -77 118
-143 198 -245 198 -254 -1 -5 -14 -26 -30 -45 -16 -19 -81 -99 -145 -178
l-116 -142 -47 57 c-26 32 -93 115 -149 184 l-101 126 81 100 c45 55 111 137
147 182 36 44 67 81 70 81 3 -1 16 -16 30 -34z m-399 -498 c13 -18 38 -48 55
-68 49 -57 190 -233 204 -256 12 -19 6 -29 -65 -118 -42 -53 -79 -96 -80 -96
-4 0 -12 26 -39 120 -95 329 -124 435 -120 442 9 15 21 8 45 -24z m798 6 c12
-15 21 -32 21 -38 0 -6 -37 -132 -82 -279 -83 -268 -83 -268 -101 -245 -10 13
-28 34 -40 48 -12 14 -47 57 -79 96 l-56 71 150 186 c83 103 154 187 158 187
5 0 18 -12 29 -26z m-416 -507 c7 -6 30 -35 52 -62 21 -28 42 -52 45 -55 3 -3
31 -37 62 -76 l57 -72 -28 -85 c-33 -101 -51 -131 -94 -157 -86 -53 -199 -23
-244 64 -17 32 -62 183 -63 206 0 8 10 26 23 40 12 14 55 67 96 118 40 50 75
92 78 92 2 0 10 -6 16 -13z"/>
<path d="M5695 5300 c-63 -14 -95 -44 -103 -99 -5 -34 16 -77 45 -96 42 -28
169 -17 215 18 45 35 46 117 2 158 -19 18 -37 24 -77 25 -29 0 -65 -2 -82 -6z"/>
</g>
</svg>
